<svg xmlns="http://www.w3.org/2000/svg" viewBox="0 0 100 100">
  <defs>
    <linearGradient id="leafGradient" x1="0%" y1="0%" x2="100%" y2="100%">
      <stop offset="0%" style="stop-color:#10b981;stop-opacity:1" />
      <stop offset="100%" style="stop-color:#14b8a6;stop-opacity:1" />
    </linearGradient>
    <filter id="shadow" x="-20%" y="-20%" width="140%" height="140%">
      <feDropShadow dx="0" dy="2" stdDeviation="3" flood-color="#10b981" flood-opacity="0.3"/>
    </filter>
  </defs>
  
  <!-- Background Circle -->
  <circle cx="50" cy="50" r="48" fill="url(#leafGradient)" filter="url(#shadow)"/>
  
  <!-- Rice Grain/Stalk Icon -->
  <g transform="translate(50, 50)">
    <!-- Main stalk -->
    <path d="M 0,-25 Q -2,-10 0,5 Q 2,15 0,25" 
          stroke="white" 
          stroke-width="3" 
          fill="none" 
          stroke-linecap="round"/>
    
    <!-- Left grain cluster -->
    <ellipse cx="-8" cy="-15" rx="4" ry="7" fill="white" opacity="0.95" transform="rotate(-20, -8, -15)"/>
    <ellipse cx="-10" cy="-5" rx="3.5" ry="6" fill="white" opacity="0.9" transform="rotate(-15, -10, -5)"/>
    <ellipse cx="-9" cy="5" rx="3" ry="5" fill="white" opacity="0.85" transform="rotate(-10, -9, 5)"/>
    
    <!-- Right grain cluster -->
    <ellipse cx="8" cy="-12" rx="4" ry="7" fill="white" opacity="0.95" transform="rotate(20, 8, -12)"/>
    <ellipse cx="10" cy="-2" rx="3.5" ry="6" fill="white" opacity="0.9" transform="rotate(15, 10, -2)"/>
    <ellipse cx="9" cy="8" rx="3" ry="5" fill="white" opacity="0.85" transform="rotate(10, 9, 8)"/>
    
    <!-- Small top grains -->
    <ellipse cx="-3" cy="-20" rx="2.5" ry="4" fill="white" opacity="0.8" transform="rotate(-5, -3, -20)"/>
    <ellipse cx="3" cy="-18" rx="2.5" ry="4" fill="white" opacity="0.8" transform="rotate(5, 3, -18)"/>
  </g>
</svg>